<?xml version="1.0" encoding="iso-8859-1"?>
<!-- Uploaded to: SVG Repo, www.svgrepo.com, Generator: SVG Repo Mixer Tools -->
<svg fill="#000000" height="800px" width="800px" version="1.1" id="Layer_1" xmlns="http://www.w3.org/2000/svg" xmlns:xlink="http://www.w3.org/1999/xlink" 
	 viewBox="0 0 512 512" xml:space="preserve">
<g>
	<g>
		<path d="M495.304,372.87h-16.696v-50.087c0-9.22-7.475-16.696-16.696-16.696h-16.696V256c0-9.22-7.475-16.696-16.696-16.696
			h-16.696v-50.087c0-9.22-7.475-16.696-16.696-16.696h-16.696v-50.087c0-9.22-7.475-16.696-16.696-16.696h-16.696V55.652
			c0-9.22-7.475-16.696-16.696-16.696H183.652c-9.22,0-16.696,7.475-16.696,16.696v50.087h-16.696
			c-9.22,0-16.696,7.475-16.696,16.696v50.087H116.87c-9.22,0-16.696,7.475-16.696,16.696v50.087H83.478
			c-9.22,0-16.696,7.475-16.696,16.696v50.087H50.087c-9.22,0-16.696,7.475-16.696,16.696v50.087H16.696
			C7.475,372.87,0,380.345,0,389.565v66.783c0,9.22,7.475,16.696,16.696,16.696c6.998,0,469.25,0,478.609,0
			c9.22,0,16.696-7.475,16.696-16.696v-66.783C512,380.345,504.525,372.87,495.304,372.87z M200.348,72.348H256h55.652v33.391
			c-21.89,0-17.172,0-38.956,0V89.044c0-9.22-7.475-16.696-16.696-16.696c-9.22,0-16.696,7.475-16.696,16.696v16.696
			c-21.763,0-17.044,0-38.957,0V72.348z M174.108,439.652H33.391v-33.391h144.056L174.108,439.652z M180.786,372.87H66.783v-33.391
			h117.343L180.786,372.87z M187.464,306.087h-87.29v-33.391h90.63L187.464,306.087z M194.143,239.304h-60.577v-33.391h63.917
			L194.143,239.304z M200.821,172.522h-33.864V139.13c14.45,0,23.479,0,37.203,0L200.821,172.522z M207.666,439.652
			c1.479-14.796,28.85-288.504,30.052-300.522h36.563c1.336,13.359,28.73,287.298,30.052,300.522H207.666z M307.84,139.13
			c13.672,0,22.826,0,37.203,0v33.391h-33.864L307.84,139.13z M314.518,205.913h63.917v33.391h-60.577L314.518,205.913z
			 M321.197,272.696h90.63v33.391h-87.29L321.197,272.696z M327.875,339.478h117.343v33.391H331.214L327.875,339.478z
			 M478.609,439.652H337.892l-3.339-33.391h144.056V439.652z"/>
	</g>
</g>
</svg>